{"title":"The Brotherhood III: Young Demons (2003) DVD RIP Gay Intrest","uid":9492106,"size":508873896,"categoryP":"video","categoryS":"movies","magnet":"?xt=urn:btih:dd5574c9eab850ecaf869cfa4a949c56e7ce2a6c&amp;dn=+The+Brotherhood+III%3A+Young+Demons+%282003%29+DVD+RIP+Gay+Intrest&amp;tr=udp%3A%2F%2Ftracker.openbittorrent.com%3A80&amp;tr=udp%3A%2F%2Fopen.demonii.com%3A1337&amp;tr=udp%3A%2F%2Ftracker.coppersurfer.tk%3A6969&amp;tr=udp%3A%2F%2Fexodus.desync.com%3A6969","seeders":1,"leechers":1,"uploader":null,"files":-1,"time":1390012698,"description":"Storyline\n\nA group of devil-may-care teenagers discover they've mistakenly called upon the Prince of Darkness in this flashy horror story. A handful of high school students have been entertaining themselves on weekends by playing an elaborate role-playing game in which they impersonate witches, warlocks, and other magical beings. One weekend, they decide to up the ante by breaking into the school and using the building's nooks and crannies to make the competition more challenging. One of the teens has brought along a book of magic spells, and they decide to throw some incantations into the games to make things more interesting. What the kids didn't count on is that the spells actually work, and soon the role-players have unleashed an unspeakable and dangerous force.\n\n\n &lt;a href=&quot;\nhttp://www.imdb.com/title/tt0310805/&quot; rel=&quot;nofollow&quot; target=&quot;_NEW&quot;&gt;\nhttp://www.imdb.com/title/tt0310805/&lt;/a&gt;\n\n\n\nFormat                                   : MPEG-4\nFormat profile                           : Base Media / Version 2\nCodec ID                                 : mp42\nFile size                                : 485 MiB\nDuration                                 : 1h 18mn\nOverall bit rate mode                    : Variable\nOverall bit rate                         : 870 Kbps\nEncoded date                             : UTC 2013-11-10 02:37:04\nTagged date                              : UTC 2013-11-10 03:49:33\nWriting application                      : HandBrake 0.9.9 2013052900\n\nVideo\nID                                       : 1\nFormat                                   : AVC\nFormat/Info                              : Advanced Video Codec\nFormat profile                           : &lt;a class=&quot;__cf_email__&quot; href=&quot;/cdn-cgi/l/email-protection&quot; data-cfemail=&quot;b2fadbd5daf2fe879c80&quot;&gt;[email&amp;#160;protected]&lt;/a&gt;&lt;script cf-hash='f9e31' type=&quot;text/javascript&quot;&gt;\n/* &lt;![CDATA[ */!function(){try{var t=&quot;currentScript&quot;in document?document.currentScript:function(){for(var t=document.getElementsByTagName(&quot;script&quot;),e=t.length;e--;)if(t[e].getAttribute(&quot;cf-hash&quot;))return t[e]}();if(t&amp;&amp;t.previousSibling){var e,r,n,i,c=t.previousSibling,a=c.getAttribute(&quot;data-cfemail&quot;);if(a){for(e=&quot;&quot;,r=parseInt(a.substr(0,2),16),n=2;a.length-n;n+=2)i=parseInt(a.substr(n,2),16)^r,e+=String.fromCharCode(i);e=document.createTextNode(e),c.parentNode.replaceChild(e,c)}}}catch(u){}}();/* ]]&gt; */&lt;/script&gt;\nFormat settings, CABAC                   : Yes\nFormat settings, ReFrames                : 5 frames\nCodec ID                                 : avc1\nCodec ID/Info                            : Advanced Video Coding\nDuration                                 : 1h 18mn\nBit rate                                 : 705 Kbps\nWidth                                    : 720 pixels\nHeight                                   : 576 pixels\nDisplay aspect ratio                     : 4:3\nOriginal display aspect ratio            : 4:3\nFrame rate mode                          : Constant\nFrame rate                               : 25.000 fps\nStandard                                 : PAL\nColor space                              : YUV\nChroma subsampling                       : 4:2:0\nBit depth                                : 8 bits\nScan type                                : Progressive\nBits/(Pixel*Frame)                       : 0.068\nStream size                              : 394 MiB (81%)\nWriting library                          : x264 core 130 r2273 b3065e6\nEncoding settings                        : cabac=1 / ref=5 / deblock=1:0:0 / \nEncoded date                             : UTC 2013-11-10 02:37:04\nTagged date                              : UTC 2013-11-10 03:49:33\nColor primaries                          : BT.601 PAL\nTransfer characteristics                 : BT.709\nMatrix coefficients                      : BT.601\n\nAudio\nID                                       : 2\nFormat                                   : AAC\nFormat/Info                              : Advanced Audio Codec\nFormat profile                           : LC\nCodec ID                                 : 40\nDuration                                 : 1h 18mn\nBit rate mode                            : Variable\nBit rate                                 : 160 Kbps\nMaximum bit rate                         : 186 Kbps\nChannel(s)                               : 2 channels\nChannel positions                        : Front: L R\nSampling rate                            : 48.0 KHz\nCompression mode                         : Lossy\nStream size                              : 89.3 MiB (18%)\nLanguage                                 : English\nEncoded date                             : UTC 2013-11-10 02:37:04\nTagged date                              : UTC 2013-11-10 03:49:33\n","torrent":{"xt":"urn:btih:dd5574c9eab850ecaf869cfa4a949c56e7ce2a6c","amp;dn":"+The+Brotherhood+III%3A+Young+Demons+%282003%29+DVD+RIP+Gay+Intrest","amp;tr":["udp%3A%2F%2Ftracker.openbittorrent.com%3A80","udp%3A%2F%2Fopen.demonii.com%3A1337","udp%3A%2F%2Ftracker.coppersurfer.tk%3A6969","udp%3A%2F%2Fexodus.desync.com%3A6969"],"infoHash":"dd5574c9eab850ecaf869cfa4a949c56e7ce2a6c","infoHashBuffer":{"type":"Buffer","data":[221,85,116,201,234,184,80,236,175,134,156,250,74,148,156,86,231,206,42,108]},"announce":[],"urlList":[]}}